<svg xmlns="http://www.w3.org/2000/svg" viewBox="0 0 640 640" xml:space="preserve"><path fill="#1DE4A5" d="M641 284c0 24.354 0 48.708-.37 73.266-.786 1.046-1.417 1.849-1.588 2.74-2.875 14.998-4.66 30.298-8.797 44.935-4.633 16.391-10.704 32.476-17.427 48.146-5.468 12.744-12.073 25.158-19.54 36.845-8.393 13.14-18.043 25.515-27.65 37.83-11.51 14.755-24.898 27.735-39.681 39.005-.955-1.068-1.705-2.06-2.696-2.476-16.264-6.817-32.274-14.39-48.924-20.09-16.736-5.73-27.94-15.277-31.25-33.217-2.71-14.698-6.153-29.262-8.801-43.97-.406-2.256 1.287-5.268 2.758-7.418 6.084-8.89 13.89-16.909 18.402-26.5 7.83-16.638 10.428-34.974 12.443-53.188.525-4.738 1.97-7.64 6.926-7.805 6.478-.214 10.436-3.785 12.831-9.412 4.817-11.311 9.775-22.571 14.239-34.022 4.205-10.789 1.316-21.93-11.874-26.837 15.064-32.656 22.313-66.72 17.04-104.301l7.674 8.22c.128-2.217.394-3.53.248-4.796-2.062-17.851-4.41-35.646-11.2-52.492-3.84-9.525-8.736-18.28-17.106-24.692-12.74-9.759-27.772-12.088-43.442-13.591-10.661-5.36-21.821-7.46-33.618-8.856-5.141-.903-9.87-1.664-14.84-2.661-7.443-4.38-14.669-8.485-21.843-12.678-11.436-6.685-23.288-12.16-37.056-13.222-10.804-11.279-24.042-14.81-39.217-14.115-16.172.993-29.367 8.772-43.012 16.345-2.95 1.838-5.648 3.48-8.154 5.378-16.887 12.799-29.867 29.092-41.86 46.645-18.95 6.241-30.223 19.271-35.43 37.817-4.214 15.006-3.93 30.258-1.737 45.514 4.065 28.275 14.155 54.568 26.527 80.341-.431 1.134-.719 1.967-1.395 2.87-11.167 2.782-16.204 12.89-12.054 24.992 3.448 10.054 7.856 19.775 11.69 29.701 3.845 9.96 10.31 16.078 21.692 15.927 1.434 9.476 2.606 18.55 4.246 27.538 3.514 19.261 9.601 37.355 24.144 51.511 4.879 4.75 9.449 9.817 14.056 15.163-2.874 14.437-5.63 28.453-8.416 42.463-2.993 15.046-10.384 26.833-25.21 33.35-.86.114-1.357.194-1.822.363-31.916 11.543-63.834 23.084-95.73 34.687-1.142.415-2.058 1.452-3.37 1.97-3.501-2.75-6.879-5.09-9.9-7.823-15.859-14.35-30.941-29.47-43.888-46.547-12.053-15.898-22.54-32.716-31.63-50.586-10.027-19.712-18.216-40.007-23.741-61.308-3.326-12.82-5.074-26.045-7.728-39.047-.49-2.403-1.922-4.613-2.919-6.912 0-25.02 0-50.042.373-75.29 1.128-4.655 1.645-9.138 2.679-13.498 3.194-13.472 6.251-26.992 10.01-40.31 2.776-9.838 5.937-19.667 10.053-29.004 6.068-13.763 13.074-27.116 19.797-40.586 9.034-18.102 21.4-33.96 34.542-49.114C92.578 94.915 108.1 79.95 125.358 66.91c15.849-11.974 32.504-22.492 50.317-31.503 19.74-9.985 40.022-18.224 61.335-23.744 12.827-3.322 26.054-5.084 39.062-7.744C278.479 3.427 280.695 1.997 283 1c25.02 0 50.042 0 75.275.368 1.056.787 1.86 1.436 2.747 1.587 7.366 1.252 14.82 2.084 22.107 3.681 9.793 2.146 19.516 4.67 29.168 7.387 8.804 2.478 17.7 4.875 26.143 8.32 9.674 3.946 19.09 8.649 28.265 13.67 12.713 6.958 25.519 13.893 37.522 21.97 17.895 12.044 33.933 26.376 48.918 41.996a310.55 310.55 0 0 1 35.079 43.913c6.753 10.224 12.062 21.392 18.237 32.01 10.72 18.43 17.651 38.446 23.278 58.775 4.271 15.43 6.242 31.496 9.336 47.259.154.784 1.261 1.38 1.925 2.064z"/><path fill="#063F4C" d="M121.096 571.453c1.022-.748 1.938-1.785 3.08-2.2 31.896-11.603 63.814-23.144 95.73-34.687.465-.169.962-.249 1.985-.091 5.551 4.1 10.215 8.521 15.63 11.644 41.242 23.788 85.226 27.168 130.688 16.086 21.476-5.236 40.75-15.19 56.568-31.575 2.441.503 4.685.98 6.777 1.83 24.44 9.942 48.858 19.942 73.282 29.924 5.774 2.36 11.551 4.711 17.214 7.425-.896 1.207-1.546 2.255-2.48 2.875-15.808 10.485-31.208 21.684-47.609 31.146-16.847 9.72-35.056 16.817-53.686 22.647-17.039 5.333-34.322 9.47-52.071 11.656-2.81.346-5.473 1.881-8.204 2.867-24.354 0-48.708 0-73.58-.388-1.527-.797-2.5-1.369-3.548-1.589-18.089-3.798-36.47-6.553-54.21-11.57-22.594-6.39-44.266-15.69-64.33-28.019-14.138-8.687-27.518-18.61-41.236-27.981z"/><path d="M358.469 641c2.262-.986 4.925-2.521 7.735-2.867 17.749-2.186 35.032-6.323 52.071-11.656 18.63-5.83 36.839-12.927 53.686-22.647 16.401-9.462 31.801-20.661 47.608-31.146.935-.62 1.585-1.668 2.782-2.79a227.398 227.398 0 0 0 3.689-2.783c14.69-11.614 28.078-24.594 39.588-39.348 9.607-12.316 19.257-24.691 27.65-37.83 7.467-11.688 14.072-24.102 19.54-36.846 6.723-15.67 12.794-31.755 17.427-48.146 4.137-14.637 5.922-29.937 8.797-44.935.17-.891.802-1.694 1.588-2.272C641 452.26 641 546.521 641 641H358.469zM641 283.531c-.664-.215-1.771-.811-1.925-1.595-3.094-15.763-5.065-31.828-9.336-47.259-5.627-20.33-12.557-40.345-23.278-58.775-6.175-10.618-11.484-21.786-18.237-32.01a310.55 310.55 0 0 0-35.079-43.913c-14.985-15.62-31.023-29.952-48.918-41.995-12.003-8.078-24.809-15.013-37.522-21.971-9.175-5.021-18.59-9.724-28.265-13.67-8.443-3.445-17.34-5.842-26.143-8.32-9.652-2.717-19.375-5.241-29.168-7.387-7.288-1.597-14.741-2.43-22.107-3.681-.888-.151-1.691-.8-2.278-1.587C452.927 1 546.854 1 641 1v282.531zM120.807 571.223c14.007 9.601 27.387 19.524 41.525 28.211 20.064 12.33 41.736 21.63 64.33 28.019 17.74 5.017 36.121 7.772 54.21 11.57 1.047.22 2.021.792 3.079 1.589C189.74 641 95.479 641 1 641V359.469c.997 1.83 2.428 4.04 2.919 6.443 2.654 13.002 4.402 26.227 7.728 39.047 5.525 21.301 13.714 41.596 23.74 61.308 9.09 17.87 19.578 34.688 31.631 50.586 12.947 17.077 28.03 32.197 43.889 46.547 3.02 2.734 6.398 5.073 9.9 7.823zM282.531 1c-1.836.997-4.052 2.427-6.46 2.919-13.007 2.66-26.234 4.422-39.06 7.744-21.314 5.52-41.597 13.76-61.336 23.744-17.813 9.01-34.468 19.53-50.317 31.503-17.26 13.04-32.78 28.005-46.904 44.288-13.142 15.154-25.508 31.012-34.542 49.114-6.723 13.47-13.73 26.823-19.797 40.586-4.116 9.337-7.277 19.166-10.053 29.004-3.759 13.318-6.816 26.838-10.01 40.31-1.034 4.36-1.551 8.843-2.679 13.029C1 189.073 1 95.146 1 1h281.531z"/><path fill="#0FD496" d="M525.947 566.767c-.998 1.18-2.09 2.017-3.483 2.768a3026.38 3026.38 0 0 1-17.628-7.15c-24.424-9.983-48.841-19.983-73.282-29.925-2.092-.85-4.336-1.327-7.002-2.093-9.166-5.566-14.467-13.443-17.171-23.21-1.495-5.4-3.052-10.782-4.568-16.562-2.188-12.16-4.388-23.928-6.41-36.016.99-1.367 1.7-2.515 2.629-3.446 15.86-15.9 24.537-35.288 27.996-57.259 1.6-10.16 3.363-20.295 5.438-30.42 6.733-.514 13.453-.596 16.516-7.653 5.69-13.11 11.805-26.097 16.436-39.584 3.602-10.486-2.038-19.798-11.502-22.776-.763-1.337-1.673-2.298-2.384-3.595 14.995-32.38 22.722-65.688 18.094-102.222l7.756 9.293 1.56-.581c-2.773-15.01-4.937-30.166-8.481-44.991-3.994-16.704-11.57-31.57-26.91-41.086 15.334 1.424 30.366 3.753 43.106 13.512 8.37 6.412 13.266 15.167 17.106 24.692 6.79 16.846 9.138 34.64 11.2 52.492.146 1.266-.12 2.579-.248 4.796l-7.674-8.22c5.273 37.58-1.976 71.645-17.04 104.301 13.19 4.907 16.08 16.048 11.874 26.837-4.464 11.45-9.422 22.71-14.239 34.022-2.395 5.627-6.353 9.198-12.831 9.412-4.956.164-6.401 3.067-6.926 7.805-2.015 18.214-4.614 36.55-12.443 53.188-4.512 9.591-12.318 17.61-18.402 26.5-1.471 2.15-3.164 5.162-2.758 7.418 2.648 14.708 6.09 29.272 8.802 43.97 3.309 17.94 14.513 27.487 31.249 33.217 16.65 5.7 32.66 13.273 48.924 20.09.991.416 1.74 1.408 2.696 2.476z"/><path fill="#EDA97A" d="M402.8 490.986c1.53 5.39 3.086 10.771 4.58 16.17 2.705 9.768 8.006 17.645 16.904 23.359-15.325 16.5-34.6 26.454-56.075 31.69-45.462 11.082-89.446 7.702-130.689-16.086-5.414-3.123-10.078-7.545-15.253-11.637 14.287-6.796 21.678-18.583 24.67-33.63 2.787-14.01 5.543-28.025 8.707-42.34 6.719 5.08 12.693 10.955 19.452 15.717 8.633 6.082 17.899 11.265 26.99 17.164 1.423 1.262 2.631 2.728 4.09 3.046 12.097 2.64 24.145 6.272 36.396 7.26 15.942 1.285 31.624-2.174 46.854-7.246 4.36-1.451 8.911-2.327 13.375-3.467z"/><path fill="#50301D" d="M443.215 110.18c15.677 9.596 23.252 24.461 27.246 41.165 3.544 14.825 5.708 29.98 8.482 44.99l-1.561.582-7.756-9.293c4.628 36.534-3.099 69.842-18.282 102.463-5.03 2.41-9.675 4.243-14.35 5.62-.58-15.513-4.118-29.981-8.264-44.386-2.1-7.297-4.06-14.807-4.622-22.33-.639-8.557-3.195-15.49-10.312-20.848-1.873-3.905-5.04-7.35-5.317-11.012-.612-8.088.29-16.285.456-24.44.08-3.917-.08-7.84-.184-11.76-.125-4.728-.468-9.455-.425-14.18.076-8.323.613-16.647.502-24.965-.09-6.823-1.126-13.653 1.183-20.32 11.383 1.253 22.543 3.354 33.204 8.714z"/><path fill="#4E2F1D" d="M193.12 290.387c-12.517-25.472-22.607-51.765-26.672-80.04-2.193-15.256-2.477-30.508 1.736-45.514 5.208-18.546 16.481-31.576 35.435-37.383 1.125 14.39 7.15 26.248 16.096 36.59 6.359 7.35 13.521 14.006 20.321 21.423-.195 3.602-.241 6.77-.602 9.902-2.005 17.392-8.81 33.023-18.083 47.624-7.666 12.069-12.047 25.115-13.068 39.33-.32 4.45-.568 8.905-1.196 13.14-4.887-1.835-9.427-3.454-13.967-5.072z"/><path fill="#AC7653" d="M301.987 491.065c-8.992-5.57-18.258-10.754-26.89-16.836-6.76-4.762-12.734-10.638-19.348-16.14-5.002-5.045-9.572-10.112-14.451-14.862-14.543-14.156-20.63-32.25-24.144-51.511-1.64-8.989-2.812-18.062-4.255-27.918-.541-3.587-1.064-6.348-1.497-9.123-2.164-13.871-4.304-27.746-6.17-41.57 1.341-.068 2.399-.184 3.5.166.448 4.93.686 9.414 1.283 13.85 2.863 21.27 6.368 42.449 14.237 62.524 2.172 5.542 5.53 11.333 9.956 15.135 9.903 8.507 23.646 6.565 33.137-3.46 2.62-2.767 4.908-5.917 7.816-8.327 13.614-11.286 30.054-13.142 46.89-13.194-.333 6.337-.694 12.282-1.457 18.318-2.52.35-4.65.546-6.757.877-9.684 1.52-19.807.976-29.036 6.138-.82.634-1.332 1.219-2.126 2.009-1.43 2.384-3.064 4.441-3.645 6.762-2.611 10.437 3.091 17.484 10.348 23.639 9.667 8.198 21.27 11.367 33.615 12.91-.32 14.69-.644 28.914-1.372 43.215-6.814-.816-13.224-1.709-19.634-2.602z"/><path fill="#54321F" d="M409.597 101.324c-1.895 6.809-.86 13.64-.769 20.462.11 8.318-.426 16.642-.502 24.965-.043 4.725.3 9.452.425 14.18.103 3.92.264 7.843.184 11.76-.166 8.155-1.068 16.352-.456 24.44.277 3.663 3.444 7.107 4.972 10.873-3.544-1.07-6.654-2.867-9.994-3.57-16.886-3.554-33.207-2.248-48.452 6.568.019.027.054.084-.174-.262 1.756-4.404 3.74-8.462 5.484-12.028-8.53 1.3-17.92 2.731-27.387 3.813-2.14-8.976-3.778-17.568 2.464-25.589 9.679-2.605 19.29-4.343 28.172-7.898 8.826-3.532 17.155-8.528 25.17-13.705 1.993-1.288 3.078-6.045 2.414-8.656-.44-1.732-4.63-3.103-7.325-3.559-8.3-1.404-16.053 1.5-24.128 3.654-3.363-.93-7.316-.418-7.313-5.31.003-4.104.031-8.209.096-12.312.133-8.38.273-16.76.459-25.14.133-6.015-1.24-11.224-6.255-15.29-1.232-1-.962-3.851-1.059-5.761 15.03 10.465 32.192 13.235 49.376 15.94 4.728.761 9.457 1.522 14.598 2.425z"/><path fill="#573420" d="M345.3 82.869c.42 2 .15 4.851 1.382 5.85 5.015 4.067 6.388 9.276 6.255 15.292-.186 8.379-.326 16.759-.459 25.139a808.14 808.14 0 0 0-.096 12.312c-.003 4.892 3.95 4.38 7.079 5.56-12.812 7.793-26.697 11.134-41.88 10.984-1.805-.006-3.192-.01-4.686-.34-1.703-.439-3.3-.55-5.147-.662-.25 0-.748-.006-.922-.303-3.406-3.115-5.306-5.898-4.175-10.919 1.002-4.445-.327-9.392-.449-14.121-.11-4.248-.026-8.503.06-12.753.162-8.155.56-16.309.534-24.462-.026-8.154-.601-16.306-.583-24.458.004-1.76 1.515-3.516 2.702-5.274 8.58 2.679 16.79 5.357 25.64 8.243-9.32-10.162-21.277-11.535-33.554-12.33.01-.807.019-1.345.027-1.883 14.788-.791 28.026 2.74 38.944 14.329 3.371 3.598 6.35 6.697 9.328 9.796z"/><path fill="#5B3621" d="M296.64 58.648c.38.634.37 1.172-.06 2.07-4.516.965-8.611 1.57-12.82 2.194l20.786 1.802c-.818 1.758-2.33 3.515-2.333 5.274-.018 8.152.557 16.304.583 24.458.026 8.153-.372 16.307-.535 24.462-.085 4.25-.169 8.505-.059 12.753.122 4.73 1.451 9.676.45 14.121-1.132 5.02.768 7.804 3.733 10.921-3.384-.038-6.59-.017-9.6-.776a1034.594 1034.594 0 0 1-37.861-10.303c-.693-2.894-1.749-5.395-1.843-7.932-.29-7.841-.197-15.697-.286-23.546-.09-7.991.055-15.998-.427-23.967-.31-5.117-1.566-10.177-2.399-15.263 13.305-7.496 26.5-15.275 42.672-16.268z"/><path fill="#5E3822" d="M253.63 74.993c1.172 5.01 2.429 10.069 2.738 15.186.482 7.969.338 15.976.427 23.967.089 7.85-.005 15.705.286 23.546.094 2.537 1.15 5.038 1.457 7.914-15.464-5.373-30.62-11.105-45.775-16.836 3.834 4.486 7.738 8.794 12.329 12.164 10.795 7.926 21.918 15.404 32.65 23.297-4.232 1.634-4.112 4.854-4.129 8.277-.032 6.503-.391 13.004-.962 19.453-4.435-2.353-8.523-4.65-12.611-6.949-6.804-6.966-13.966-13.622-20.325-20.973-8.947-10.34-14.97-22.199-15.731-36.651 11.624-17.925 24.604-34.218 41.491-47.017 2.506-1.898 5.205-3.54 8.154-5.378z"/><path fill="#FCF7F3" d="M192.975 290.688c4.685 1.317 9.225 2.936 14.308 4.943 5.266 3.563 9.99 6.738 14.875 10.022 8.792-19.219 23.503-30.296 44.902-29.239 21.331 1.053 34.974 13.45 41.76 33.151 5.047-.636 9.629-1.213 14.652-1.723 5 .58 9.557 1.092 14.432 1.64.493-1.188 1.072-2.526 1.605-3.882 4.572-11.631 12.478-20.112 23.843-25.371 1.288-.596 2.424-1.52 3.64-2.273.008.02-.029.003.328.142 1.544-.24 2.731-.62 4.298-1.08 2.962-.424 5.545-.769 8.569-.977 21.545.509 36.005 10.884 44.535 29.913l12.302-9.791c4.645-1.833 9.29-3.666 14.122-5.74 1.097.72 2.007 1.681 2.412 3.05-2.145.836-3.787 1.265-5.793 1.775-3.887 1.929-7.41 3.777-11.256 5.72-2.845 2.256-5.772 4.105-7.753 6.68-1.407 1.83-2.436 4.775-2.102 6.992 3.726 24.776-14.86 49.327-39.176 51.391-27.808 2.36-50.297-17.02-50.64-43.644-.131-10.1-.504-10.477-10.887-10.768-.994-.028-1.992.101-3.432.1-1.443-.025-2.443-.023-3.438.042-8.888.579-9.044.79-9.097 9.52-.084 13.987-5.394 25.787-16.174 34.543-15.148 12.303-32.192 14.299-49.5 5.474-17.79-9.071-25.577-24.465-24.38-44.395.47-7.839-3.494-13.346-11.535-16.345-4.234-2.2-8.356-4.05-12.753-6.11-1.408-.46-2.54-.71-3.673-.96.287-.833.575-1.666 1.006-2.8m88.908-7.266c-1.093-.405-2.17-.863-3.28-1.208-17.439-5.414-32.809-1.803-44.97 11.793-11.482 12.839-13.463 27.973-7.034 43.81 6.254 15.408 21.984 25.267 38.746 25.132 18.922-.152 35.576-13.573 40.05-32.274 4.495-18.794-4.761-37.827-23.512-47.253m70.54 8.506c-10.12 10.615-14.097 23.108-11.373 37.59 4.387 23.321 27.98 37.947 51.463 31.95 22.718-5.801 36.242-30.08 29.156-52.342-9.46-29.722-45.354-38.966-69.246-17.198z"/><path fill="#EBA97A" d="M191.58 293.558c1.521.18 2.654.43 4.075 1.275 3.291 6.472 6.293 12.347 9.294 18.223 2.149 13.873 4.29 27.748 6.453 41.619.433 2.775.956 5.536 1.447 8.683-11.324.971-17.788-5.147-21.634-15.107-3.833-9.926-8.241-19.647-11.689-29.7-4.15-12.104.887-22.211 12.054-24.993z"/><path fill="#10D193" d="M345.623 82.959a200.082 200.082 0 0 1-9.372-9.697c13.375.563 25.227 6.038 36.663 12.723 7.174 4.193 14.4 8.297 21.844 12.678-16.943-2.469-34.106-5.239-49.135-15.704z"/><path fill="#A66F4D" d="M320.996 398.026c.361-5.945.722-11.89 1.298-18.332.38-.556.546-.615 1.167-.655 5.257.324 10.084.408 14.855.975 15.387 1.829 29.79 6.078 39.937 18.836 4.187 5.265 9.586 8.16 15.722 9.9 9.49 2.693 19.278-1.29 23.572-10.176 3.084-6.38 5.909-13.142 7.283-20.046 4.472-22.46 8.225-45.062 12.555-67.61.894-.075 1.487-.15 2.158.185a178.246 178.246 0 0 1-1.116 9.24c-2.106 14.364-4.23 28.726-6.347 43.09-1.689 10.146-3.452 20.28-5.052 30.441-3.459 21.97-12.135 41.36-27.996 57.26-.929.93-1.64 2.078-2.899 3.576a5932.61 5932.61 0 0 1-22.064 19.666c-14.848 13.172-32.238 19.465-52.043 19.213.323-14.223.646-28.447.935-43.205-.034-.535-.075-.68.372-.606 3.743-.224 7.092-.247 10.326-.87 13.28-2.56 25.178-7.9 33.2-19.268 9.057-12.836 4.639-24.592-10.735-27.436-10.866-2.01-22.068-2.206-33.324-3.41-.737-.389-1.27-.578-1.804-.768z"/><path fill="#E39F70" d="M321.621 493.667c20.21.174 37.6-6.12 52.448-19.291 7.212-6.398 14.412-12.81 21.887-19.346 2.469 11.637 4.669 23.406 6.857 35.565-4.476 1.53-9.027 2.407-13.387 3.858-15.23 5.072-30.912 8.531-46.854 7.246-12.251-.988-24.299-4.62-36.397-7.26-1.458-.318-2.666-1.784-4.089-3.046 6.311.565 12.72 1.458 19.535 2.274z"/><path fill="#EBA879" d="M432.466 363.453c1.732-14.384 3.855-28.746 5.961-43.11.431-2.938.798-5.886 1.307-9.532 2.874-5.683 5.635-10.664 8.396-15.644 1.641-.43 3.283-.858 5.282-1.319 9.968 2.571 15.608 11.883 12.006 22.369-4.631 13.487-10.746 26.474-16.436 39.584-3.063 7.057-9.783 7.14-16.516 7.652z"/><path fill="#E39E70" d="M436.994 295.707c-3.958 3.63-7.946 6.804-12.272 10.247-8.53-19.03-22.99-29.404-44.165-30.13 11.293.565 22.656 1.484 34.28 2.424-3.582-7.827-10.21-11.585-18.114-13.208-13.457-2.764-26.756-.306-40.018 1.934-.951.16-2.252.512-2.66 1.205-1.183 2.009-2.736 4.264-2.659 6.368.043 1.165 2.958 2.914 4.757 3.178 3.547.52 7.219.19 10.84.21-1.207.773-2.343 1.698-3.631 2.294-11.365 5.26-19.27 13.74-23.843 25.37-.533 1.357-1.112 2.695-1.605 3.883-4.875-.548-9.433-1.06-14.437-2.082-.122-8.912.444-17.313.483-25.716.118-25.808.035-51.616.442-77.52a778.86 778.86 0 0 1 8.612-1.29c9.39-1.43 18.781-2.862 27.31-4.162-1.743 3.566-3.727 7.624-5.626 11.914-.014.323-.114.414-.213.506.078.058.207.179.224.164.11-.09.195-.21.288-.321 15.263-8.789 31.584-10.095 48.47-6.541 3.34.703 6.45 2.5 10.01 3.933 7.446 5.133 10.002 12.067 10.64 20.624.562 7.523 2.523 15.033 4.623 22.33 4.146 14.405 7.684 28.873 8.264 44.386z"/><path fill="#EDA87A" d="M323.98 204.26c.005 25.808.088 51.616-.03 77.424-.039 8.403-.605 16.804-.925 25.648-4.576 1.02-9.158 1.597-14.206 2.233-6.785-19.702-20.428-32.098-41.76-33.15-21.398-1.058-36.109 10.02-44.9 29.238-4.886-3.284-9.61-6.459-14.53-9.805.086-4.624.335-9.079.654-13.528 1.021-14.216 5.402-27.262 13.068-39.331 9.274-14.6 16.078-30.232 18.083-47.624.36-3.132.407-6.3.602-9.902 4.092 1.847 8.18 4.145 12.855 6.754 8.377 3.168 16.012 6.594 23.99 8.763 15.415 4.19 31.247 4.336 47.099 3.28m-46.315 59.642c-10.956-.908-21.935-2.136-32.567 2.047-6.428 2.528-11.464 6.494-13.944 13.284.625.211.96.453 1.225.393a97.609 97.609 0 0 0 4.343-1.11c12.977-3.56 26.062-5.137 39.503-2.906 4.069.675 8.345.809 12.436.364 2.202-.24 5.475-1.81 6.045-3.52 1.146-3.433-1.307-6.108-4.792-6.889-3.711-.831-7.547-1.103-12.25-1.663z"/><path fill="#EEA97B" d="M323.005 379.02c-.165.059-.33.118-.738.282-17.052.549-33.492 2.405-47.106 13.69-2.908 2.41-5.197 5.561-7.816 8.328-9.491 10.025-23.234 11.967-33.137 3.46-4.425-3.802-7.784-9.593-9.956-15.135-7.869-20.075-11.374-41.254-14.237-62.524-.597-4.436-.835-8.92-1.232-14.28-.087-4.575-.182-8.254-.276-11.932 7.929 2.648 11.894 8.155 11.423 15.994-1.197 19.93 6.59 35.324 24.38 44.395 17.308 8.825 34.352 6.83 49.5-5.474 10.78-8.756 16.09-20.556 16.174-34.542.053-8.73.21-8.942 9.097-9.52.995-.066 1.995-.068 3.449.447.462 22.635.469 44.723.475 66.81z"/><path fill="#EDA879" d="M322.959 449.917c-12.31-1.008-23.914-4.177-33.58-12.375-7.258-6.155-12.96-13.202-10.349-23.639.581-2.32 2.214-4.378 3.94-6.589 1.449.952 2.35 1.91 3.186 2.922 9.558 11.59 21.636 18.232 36.829 19.258-.028 7.047-.063 13.628-.099 20.21 0 0 .04.145.073.213z"/><path fill="#D09271" d="M322.977 429.029c-15.185-.561-27.263-7.203-36.821-18.793-.835-1.013-1.737-1.97-2.904-3.127.217-.758.728-1.343 1.874-1.743 11.125.666 21.613 1.21 32.108 1.574 1.91.066 3.844-.605 6.205-.933 13.37.518 26.302 1.033 40.342 1.593-9.998 16.091-24.146 21.172-40.804 21.429m-2.294-6.8c16.012.427 31.38-4.82 35.476-12.11H291.33c8.398 6.73 17.642 11.142 29.353 12.11z"/><path fill="#ECA779" d="M323 406.005c-1.922.33-3.857 1-5.766.935a1008.398 1008.398 0 0 1-31.8-1.624c8.596-5.346 18.72-4.803 28.403-6.322 2.107-.33 4.237-.527 6.757-.877.935.099 1.469.288 2.206 1.115.202 2.682.201 4.728.2 6.773z"/><path fill="#563523" d="M208.395 300.558c.206 4.03.3 7.708.344 11.817-1.108.546-2.166.662-3.506.73-3.285-5.925-6.287-11.8-9.302-18.062 4.108 1.464 8.23 3.314 12.464 5.515z"/><path fill="#5B3621" d="M324.392 204.165c-16.264 1.15-32.096 1.006-47.512-3.185-7.977-2.17-15.612-5.595-23.642-8.709-.016-6.759.343-13.26.375-19.763.017-3.423-.103-6.643 4.486-8.216 18.716 8.554 37.542 14.288 58.362 13.704 6.491-.328 12.517-.659 18.544-.99-5.855 7.951-4.218 16.543-2.077 25.52-2.657.747-5.39 1.145-8.536 1.639z"/><path fill="#603D29" d="M335.392 176.936c-6.414.401-12.44.732-18.86.7 2.807-4.012 2.753-8.42 2.416-12.844-.174-2.272-.626-4.523-.952-6.784 14.768.148 28.653-3.193 41.77-10.75 8.004-2.64 15.756-5.544 24.057-4.14 2.694.456 6.885 1.827 7.325 3.559.664 2.611-.42 7.368-2.414 8.656-8.015 5.177-16.344 10.173-25.17 13.705-8.883 3.555-18.493 5.293-28.172 7.898z"/><path fill="#65402B" d="M317.58 158.006a28.644 28.644 0 0 1 1.368 6.786c.337 4.424.39 8.832-2.88 12.841-20.427.947-39.253-4.787-57.71-13.575-11.348-7.72-22.471-15.198-33.266-23.124-4.591-3.37-8.495-7.678-12.329-12.164 15.156 5.731 30.311 11.463 45.852 17.213 12.974 3.348 25.542 6.763 38.17 9.944 3.01.759 6.216.738 9.774 1.073.441-.002.94.003 1.478.235 2.013.407 3.489.583 4.964.758l4.58.013z"/><path fill="#24CE95" d="M304.915 64.714c-7.192-.591-14.014-1.183-21.155-1.802 4.209-.623 8.304-1.23 12.82-1.926 12.698.436 24.656 1.81 33.974 11.97-8.848-2.885-17.059-5.563-25.639-8.242z"/><path fill="#5B3621" d="M312.895 157.666c-1.37.152-2.845-.024-4.609-.43 1.309-.12 2.906-.009 4.61.43z"/><path fill="#F1BA95" d="M282.228 283.588c18.406 9.26 27.662 28.293 23.166 47.087-4.473 18.701-21.127 32.122-40.049 32.274-16.762.135-32.492-9.724-38.746-25.132-6.429-15.837-4.448-30.971 7.035-43.81 12.16-13.596 27.53-17.207 44.969-11.793 1.11.345 2.187.803 3.625 1.374M255.711 301.5c-2.737 7.717-.837 14.14 5.267 17.805 5.47 3.284 12.54 2.303 16.926-2.35 5.526-5.862 4.988-14.74-1.209-19.94-6.432-5.396-14.958-3.827-20.984 4.485z"/><path fill="#E9B28D" d="M352.678 291.676c23.637-21.516 59.53-12.272 68.991 17.45 7.086 22.261-6.438 46.54-29.156 52.342-23.484 5.997-47.076-8.629-51.463-31.95-2.724-14.482 1.252-26.975 11.628-37.842m12.128 20.636c4.324 8.606 12.794 11.435 20.214 6.753 6.63-4.186 8.302-13.275 3.618-19.685-3.707-5.073-10.726-6.937-16.515-4.386-6.304 2.779-8.973 8.603-7.317 17.318z"/><path fill="#E49F71" d="M323.461 379.039c-.462-22.107-.469-44.195-.486-66.773.984-.546 1.982-.675 2.976-.647 10.383.291 10.756.668 10.886 10.768.344 26.623 22.833 46.004 50.641 43.644 24.316-2.064 42.902-26.615 39.176-51.39-.334-2.218.695-5.163 2.102-6.992 1.981-2.576 4.908-4.425 7.808-6.222.425 3.406.473 6.449.52 9.491-4.03 22.548-7.782 45.15-12.254 67.61-1.374 6.904-4.199 13.666-7.283 20.046-4.294 8.885-14.082 12.869-23.572 10.176-6.136-1.74-11.535-4.635-15.722-9.9-10.148-12.758-24.55-17.007-39.937-18.836-4.77-.567-9.598-.65-14.855-.975z"/><path fill="#53321F" d="M366.991 277.956c-3.63-.041-7.3.29-10.848-.231-1.8-.264-4.714-2.013-4.757-3.178-.077-2.104 1.476-4.36 2.66-6.368.407-.693 1.708-1.044 2.659-1.205 13.262-2.24 26.561-4.698 40.018-1.934 7.904 1.623 14.532 5.38 18.113 13.208-11.623-.94-22.986-1.859-34.72-2.56-2.953.561-5.536.906-8.883 1.238-1.932.337-3.101.685-4.27 1.033 0 0 .037.018.028-.003z"/><path fill="#5C3A27" d="M437.385 310.918c-.348-3.042-.396-6.085-.498-9.586 3.468-2.307 6.991-4.155 10.878-6.084-2.396 4.9-5.157 9.88-8.11 15.152-.783.367-1.376.443-2.27.518z"/><path fill="#E39E70" d="M367.32 278.098c.812-.487 1.98-.835 3.534-1.091-.803.471-1.99.85-3.534 1.091z"/><path fill="#E39E6F" d="M323.439 406.007c-.438-2.047-.437-4.093-.436-6.576 11.053.567 22.255.763 33.12 2.773 15.375 2.844 19.793 14.6 10.736 27.436-8.022 11.368-19.92 16.709-33.2 19.268-3.234.623-6.583.646-10.326.87-.411-6.656-.376-13.237-.348-20.284 16.65-.722 30.798-5.803 40.796-21.894-14.04-.56-26.972-1.075-40.342-1.593z"/><path fill="#54321F" d="M355.005 211.002c-.111.083-.196.204-.306.294-.017.015-.146-.106-.224-.164.1-.092.199-.183.441-.16.143.114.108.057.09.03z"/><path fill="#53321F" d="M278.125 263.924c4.242.538 8.078.81 11.789 1.641 3.485.78 5.938 3.456 4.792 6.89-.57 1.71-3.843 3.28-6.045 3.519a46.26 46.26 0 0 1-12.436-.364c-13.441-2.23-26.526-.654-39.503 2.905a97.609 97.609 0 0 1-4.343 1.11c-.266.06-.6-.18-1.225-.392 2.48-6.79 7.516-10.756 13.944-13.284 10.632-4.183 21.611-2.955 33.027-2.025z"/><path fill="#FDFBFA" d="M320.215 422.201c-11.243-.94-20.487-5.352-28.885-12.083l64.829-.001c-4.096 7.291-19.464 12.539-35.944 12.084z"/><path fill="#62554F" d="M255.88 301.159c5.857-7.97 14.383-9.539 20.815-4.142 6.197 5.2 6.735 14.077 1.21 19.94-4.386 4.652-11.457 5.633-16.927 2.349-6.104-3.666-8.004-10.088-5.099-18.147zM364.671 311.93c-1.521-8.333 1.148-14.157 7.452-16.936 5.79-2.551 12.808-.687 16.515 4.386 4.684 6.41 3.013 15.5-3.618 19.685-7.42 4.682-15.89 1.853-20.349-7.134z"/></svg>