<svg width="112" height="112" viewBox="0 0 112 112" fill="none" xmlns="http://www.w3.org/2000/svg">
<g filter="url(#filter0_di_4398_2020)">
<path d="M16 28C16 16.9543 24.9543 8 36 8H76C87.0457 8 96 16.9543 96 28V68C96 79.0457 87.0457 88 76 88H36C24.9543 88 16 79.0457 16 68V28Z" fill="url(#paint0_linear_4398_2020)"/>
</g>
<g filter="url(#filter1_d_4398_2020)">
<path d="M69.75 30.5V23H36C35.3096 23 34.75 23.5596 34.75 24.25V65.5H42.25" stroke="white" stroke-width="2" stroke-linecap="round" stroke-linejoin="round" shape-rendering="crispEdges"/>
</g>
<g filter="url(#filter2_d_4398_2020)">
<path fill-rule="evenodd" clip-rule="evenodd" d="M73.25 30.5H46.25C44.0409 30.5 42.25 32.2909 42.25 34.5V69C42.25 71.2091 44.0409 73 46.25 73H73.25C75.4591 73 77.25 71.2091 77.25 69V34.5C77.25 32.2909 75.4591 30.5 73.25 30.5ZM51.25 45.5C51.25 44.9477 51.6977 44.5 52.25 44.5H67.25C67.8023 44.5 68.25 44.9477 68.25 45.5C68.25 46.0523 67.8023 46.5 67.25 46.5H52.25C51.6977 46.5 51.25 46.0523 51.25 45.5ZM52.25 54.5C51.6977 54.5 51.25 54.9477 51.25 55.5C51.25 56.0523 51.6977 56.5 52.25 56.5H67.25C67.8023 56.5 68.25 56.0523 68.25 55.5C68.25 54.9477 67.8023 54.5 67.25 54.5H52.25Z" fill="#D0F7FF"/>
</g>
<defs>
<filter id="filter0_di_4398_2020" x="0" y="0" width="112" height="112" filterUnits="userSpaceOnUse" color-interpolation-filters="sRGB">
<feFlood flood-opacity="0" result="BackgroundImageFix"/>
<feColorMatrix in="SourceAlpha" type="matrix" values="0 0 0 0 0 0 0 0 0 0 0 0 0 0 0 0 0 0 127 0" result="hardAlpha"/>
<feOffset dy="8"/>
<feGaussianBlur stdDeviation="8"/>
<feComposite in2="hardAlpha" operator="out"/>
<feColorMatrix type="matrix" values="0 0 0 0 0.815686 0 0 0 0 0.815686 0 0 0 0 0.929412 0 0 0 0.36 0"/>
<feBlend mode="normal" in2="BackgroundImageFix" result="effect1_dropShadow_4398_2020"/>
<feBlend mode="normal" in="SourceGraphic" in2="effect1_dropShadow_4398_2020" result="shape"/>
<feColorMatrix in="SourceAlpha" type="matrix" values="0 0 0 0 0 0 0 0 0 0 0 0 0 0 0 0 0 0 127 0" result="hardAlpha"/>
<feOffset dy="-4"/>
<feGaussianBlur stdDeviation="6"/>
<feComposite in2="hardAlpha" operator="arithmetic" k2="-1" k3="1"/>
<feColorMatrix type="matrix" values="0 0 0 0 1 0 0 0 0 1 0 0 0 0 1 0 0 0 1 0"/>
<feBlend mode="normal" in2="shape" result="effect2_innerShadow_4398_2020"/>
</filter>
<filter id="filter1_d_4398_2020" x="31.75" y="21" width="41" height="48.5" filterUnits="userSpaceOnUse" color-interpolation-filters="sRGB">
<feFlood flood-opacity="0" result="BackgroundImageFix"/>
<feColorMatrix in="SourceAlpha" type="matrix" values="0 0 0 0 0 0 0 0 0 0 0 0 0 0 0 0 0 0 127 0" result="hardAlpha"/>
<feOffset dy="1"/>
<feGaussianBlur stdDeviation="1"/>
<feComposite in2="hardAlpha" operator="out"/>
<feColorMatrix type="matrix" values="0 0 0 0 0.396078 0 0 0 0 0.67451 0 0 0 0 1 0 0 0 0.5 0"/>
<feBlend mode="normal" in2="BackgroundImageFix" result="effect1_dropShadow_4398_2020"/>
<feBlend mode="normal" in="SourceGraphic" in2="effect1_dropShadow_4398_2020" result="shape"/>
</filter>
<filter id="filter2_d_4398_2020" x="40.25" y="29.5" width="39" height="46.5" filterUnits="userSpaceOnUse" color-interpolation-filters="sRGB">
<feFlood flood-opacity="0" result="BackgroundImageFix"/>
<feColorMatrix in="SourceAlpha" type="matrix" values="0 0 0 0 0 0 0 0 0 0 0 0 0 0 0 0 0 0 127 0" result="hardAlpha"/>
<feOffset dy="1"/>
<feGaussianBlur stdDeviation="1"/>
<feComposite in2="hardAlpha" operator="out"/>
<feColorMatrix type="matrix" values="0 0 0 0 0.396078 0 0 0 0 0.67451 0 0 0 0 1 0 0 0 0.5 0"/>
<feBlend mode="normal" in2="BackgroundImageFix" result="effect1_dropShadow_4398_2020"/>
<feBlend mode="normal" in="SourceGraphic" in2="effect1_dropShadow_4398_2020" result="shape"/>
</filter>
<linearGradient id="paint0_linear_4398_2020" x1="56" y1="8" x2="56" y2="88" gradientUnits="userSpaceOnUse">
<stop stop-color="#5CA6FF"/>
<stop offset="1" stop-color="#A9E5FF"/>
</linearGradient>
</defs>
</svg>
